<svg xmlns="http://www.w3.org/2000/svg">
    <symbol id="search" viewBox="0 0 24 24">
        <path fill="none" stroke="currentColor" stroke-linecap="round" stroke-linejoin="round" stroke-width="1.5"
            d="m21 21l-4.343-4.343m0 0A8 8 0 1 0 5.343 5.343a8 8 0 0 0 11.314 11.314" />
    </symbol>
    <!-- <symbol id="search" viewBox="0 0 24 24">
        <path fill="none" stroke="currentColor" stroke-linecap="round" stroke-linejoin="round" stroke-width="1.5"
            d="m21 21l-4.343-4.343m0 0A8 8 0 1 0 5.343 5.343a8 8 0 0 0 11.314 11.314" />
    </symbol>
    <symbol id="search" viewBox="0 0 24 24">
        <path fill="none" stroke="currentColor" stroke-linecap="round" stroke-linejoin="round" stroke-width="1.5"
            d="m21 21l-4.343-4.343m0 0A8 8 0 1 0 5.343 5.343a8 8 0 0 0 11.314 11.314" />
    </symbol>
    <symbol id="search" viewBox="0 0 24 24">
        <path fill="none" stroke="currentColor" stroke-linecap="round" stroke-linejoin="round" stroke-width="1.5"
            d="m21 21l-4.343-4.343m0 0A8 8 0 1 0 5.343 5.343a8 8 0 0 0 11.314 11.314" />
    </symbol> -->

    <symbol id="instagram" viewBox="0 0 24 24">
        <path fill="currentColor"
            d="M13.028 2c1.125.003 1.696.009 2.189.023l.194.007c.224.008.445.018.712.03c1.064.05 1.79.218 2.427.465c.66.254 1.216.598 1.772 1.153a4.908 4.908 0 0 1 1.153 1.772c.247.637.415 1.363.465 2.428c.012.266.022.487.03.712l.006.194c.015.492.021 1.063.023 2.188l.001.746v1.31a78.831 78.831 0 0 1-.023 2.188l-.006.194c-.008.225-.018.446-.03.712c-.05 1.065-.22 1.79-.466 2.428a4.883 4.883 0 0 1-1.153 1.772a4.915 4.915 0 0 1-1.772 1.153c-.637.247-1.363.415-2.427.465a72.11 72.11 0 0 1-.712.03l-.194.006c-.493.014-1.064.021-2.189.023l-.746.001h-1.309a78.43 78.43 0 0 1-2.189-.023l-.194-.006a63.036 63.036 0 0 1-.712-.031c-1.064-.05-1.79-.218-2.428-.465a4.889 4.889 0 0 1-1.771-1.153a4.904 4.904 0 0 1-1.154-1.772c-.247-.637-.415-1.363-.465-2.428a74.1 74.1 0 0 1-.03-.712l-.005-.194A79.047 79.047 0 0 1 2 13.028v-2.056a78.82 78.82 0 0 1 .022-2.188l.007-.194c.008-.225.018-.446.03-.712c.05-1.065.218-1.79.465-2.428A4.88 4.88 0 0 1 3.68 3.678a4.897 4.897 0 0 1 1.77-1.153c.638-.247 1.363-.415 2.428-.465c.266-.012.488-.022.712-.03l.194-.006a79 79 0 0 1 2.188-.023zM12 7a5 5 0 1 0 0 10a5 5 0 0 0 0-10m0 2a3 3 0 1 1 .001 6a3 3 0 0 1 0-6m5.25-3.5a1.25 1.25 0 0 0 0 2.5a1.25 1.25 0 0 0 0-2.5" />
    </symbol>
    <symbol id="twitter" viewBox="0 0 20 20">
        <path fill="currentColor"
            d="M10 .4C4.698.4.4 4.698.4 10s4.298 9.6 9.6 9.6s9.6-4.298 9.6-9.6S15.302.4 10 .4m3.905 7.864c.004.082.005.164.005.244c0 2.5-1.901 5.381-5.379 5.381a5.335 5.335 0 0 1-2.898-.85c.147.018.298.025.451.025c.886 0 1.701-.301 2.348-.809a1.895 1.895 0 0 1-1.766-1.312a1.9 1.9 0 0 0 .853-.033a1.892 1.892 0 0 1-1.517-1.854v-.023c.255.141.547.227.857.237a1.89 1.89 0 0 1-.585-2.526a5.376 5.376 0 0 0 3.897 1.977a1.891 1.891 0 0 1 3.222-1.725a3.797 3.797 0 0 0 1.2-.459a1.9 1.9 0 0 1-.831 1.047a3.799 3.799 0 0 0 1.086-.299a3.834 3.834 0 0 1-.943.979" />
    </symbol>
    <symbol id="facebook" viewBox="0 0 24 24">
        <path fill="currentColor"
            d="M22 12c0-5.52-4.48-10-10-10S2 6.48 2 12c0 4.84 3.44 8.87 8 9.8V15H8v-3h2V9.5C10 7.57 11.57 6 13.5 6H16v3h-2c-.55 0-1 .45-1 1v2h3v3h-3v6.95c5.05-.5 9-4.76 9-9.95" />
    </symbol>
</svg>